HIERARCHY
ROOT Hips
{
	OFFSET 0.00 0.00 0.00
	CHANNELS 6 Xposition Yposition Zposition Xrotation Yrotation Zrotation
	JOINT Spine
	{
		OFFSET 0.00000 1.72418 2.58627
		CHANNELS 3 Xrotation Yrotation Zrotation
		JOINT Spine1
		{
			OFFSET 0.00000 0.59880 3.39597
			CHANNELS 3 Xrotation Yrotation Zrotation
			JOINT Spine2
			{
				OFFSET 0.00000 0.30055 3.43524
				CHANNELS 3 Xrotation Yrotation Zrotation
				JOINT Spine3
				{
					OFFSET 0.00000 0.00000 3.44836
					CHANNELS 3 Xrotation Yrotation Zrotation
					JOINT Neck
					{
						OFFSET 0.00000 -1.29313 9.05195
						CHANNELS 3 Xrotation Yrotation Zrotation
						JOINT Head
						{
							OFFSET 0.00000 -0.82335 4.66946
							CHANNELS 3 Xrotation Yrotation Zrotation
							End Site
							{
								OFFSET 0.00000 0.00001 5.58203
							}
						}
					}
					JOINT RightShoulder
					{
						OFFSET -1.18828 -1.98046 6.41673
						CHANNELS 3 Xrotation Yrotation Zrotation
						JOINT RightArm
						{
							OFFSET -5.90180 0.00000 0.00000
							CHANNELS 3 Xrotation Yrotation Zrotation
							JOINT RightForeArm
							{
								OFFSET -11.45951 0.00000 0.00000
								CHANNELS 3 Xrotation Yrotation Zrotation
								JOINT RightHand
								{
									OFFSET -10.63451 0.00000 0.00000
									CHANNELS 3 Xrotation Yrotation Zrotation
									JOINT RightHandEnd
									{
										OFFSET -2.86944 0.00000 0.00000
										CHANNELS 3 Xrotation Yrotation Zrotation
										End Site
										{
											OFFSET -2.86944 0.00000 0.00000
										}
									}
									JOINT RightHandThumb1
									{
										OFFSET -1.14778 -1.91296 -0.76518
										CHANNELS 3 Yrotation Xrotation Zrotation
										End Site
										{
											OFFSET -2.77167 -0.74267 0.00000
										}
									}
								}
							}
						}
					}
					JOINT LeftShoulder
					{
						OFFSET 1.18828 -1.98046 6.41673
						CHANNELS 3 Xrotation Yrotation Zrotation
						JOINT LeftArm
						{
							OFFSET 5.90180 0.00000 0.00000
							CHANNELS 3 Xrotation Yrotation Zrotation
							JOINT LeftForeArm
							{
								OFFSET 11.45951 0.00000 0.00000
								CHANNELS 3 Xrotation Yrotation Zrotation
								JOINT LeftHand
								{
									OFFSET 10.63451 0.00000 0.00000
									CHANNELS 3 Xrotation Yrotation Zrotation
									JOINT LeftHandEnd
									{
										OFFSET 2.86944 0.00000 0.00000
										CHANNELS 3 Xrotation Yrotation Zrotation
										End Site
										{
											OFFSET 2.86944 0.00000 0.00000
										}
									}
									JOINT LeftHandThumb1
									{
										OFFSET 1.14778 -1.91296 -0.76518
										CHANNELS 3 Yrotation Xrotation Zrotation
										End Site
										{
											OFFSET 2.77167 -0.74267 0.00000
										}
									}
								}
							}
						}
					}
				}
			}
		}
	}
	JOINT RightUpLeg
	{
		OFFSET -3.52524 0.00000 -1.02984
		CHANNELS 3 Xrotation Yrotation Zrotation
		JOINT RightLeg
		{
			OFFSET 0.00001 0.00000 -17.80965
			CHANNELS 3 Xrotation Yrotation Zrotation
			JOINT RightFoot
			{
				OFFSET 0.00001 0.00000 -17.00908
				CHANNELS 3 Xrotation Yrotation Zrotation
				JOINT RightToeBase
				{
					OFFSET 0.00000 -5.55853 -2.02314
					CHANNELS 3 Xrotation Yrotation Zrotation
					End Site
					{
						OFFSET 0.00000 -2.85188 -0.00000
					}
				}
			}
		}
	}
	JOINT LeftUpLeg
	{
		OFFSET 3.52524 0.00000 -1.02984
		CHANNELS 3 Xrotation Yrotation Zrotation
		JOINT LeftLeg
		{
			OFFSET 0.00001 0.00000 -17.80965
			CHANNELS 3 Xrotation Yrotation Zrotation
			JOINT LeftFoot
			{
				OFFSET 0.00001 0.00000 -17.00908
				CHANNELS 3 Xrotation Yrotation Zrotation
				JOINT LeftToeBase
				{
					OFFSET 0.00000 -5.55853 -2.02314
					CHANNELS 3 Xrotation Yrotation Zrotation
					End Site
					{
						OFFSET 0.00000 -2.85188 -0.00000
					}
				}
			}
		}
	}
}
MOTION
Frames: 6
Frame Time: 0.008342
 5.1127 -5.3752 36.4601 -0.1026 6.4739 -147.1732 1.9600 -3.8186 -0.0402 0.8111 -2.7334 0.1870 4.1743 3.2971 13.1033 2.1067 1.2857 0.7898 7.5889 9.0587 11.8613 3.9028 3.2700 10.4842 -7.1763 14.3051 37.3820 -0.6629 -47.7425 65.3757 -0.0000 0.0000 48.7987 -12.7759 17.9262 -8.7160 -0.0000 0.0000 -0.0000 0.0000 -0.0000 0.0000 -0.3082 10.1671 -5.5155 -29.6205 26.0666 -24.0699 -0.0000 -0.0000 -23.2509 -10.1405 -26.9808 0.6447 -0.0000 0.0000 0.0000 0.0000 0.0000 0.0000 -21.8401 13.6914 -33.3928 34.8094 0.0000 0.0000 -14.2328 3.3001 -10.1755 4.2827 0.0000 0.0000 -5.3909 -5.2839 -16.8200 52.1126 0.0000 0.0000 10.2028 -1.6705 -1.1658 -22.8937 0.0000 -0.0000
 5.1414 -5.1115 36.5287 -0.0295 6.5063 -147.6743 1.9489 -3.8520 0.0033 0.7960 -2.7210 0.1869 4.1638 3.2519 13.1399 2.1011 1.2729 0.8150 7.5056 8.9955 11.7322 3.8882 3.2627 10.2125 -6.9358 14.2930 37.2675 -0.5501 -47.5094 65.3100 -0.0000 0.0001 49.3139 -12.7023 18.1108 -8.7798 -0.0000 -0.0000 -0.0000 -0.0000 -0.0000 0.0000 -0.2634 10.0933 -5.4934 -29.8937 26.1624 -23.6045 -0.0000 -0.0000 -23.5068 -9.8051 -26.9554 0.8207 -0.0000 -0.0000 0.0000 -0.0000 -0.0000 0.0000 -21.3145 13.3013 -33.4224 34.5663 0.0000 0.0000 -14.8204 2.5142 -9.7026 4.9427 0.0000 0.0000 -5.9912 -5.0198 -16.7209 53.3869 0.0000 0.0000 11.4642 -2.5476 -1.1548 -21.3190 0.0000 -0.0000
 5.1657 -4.8499 36.5934 0.0532 6.5364 -148.2128 1.9320 -3.8999 0.0513 0.7818 -2.7029 0.1835 4.1494 3.2140 13.1666 2.0963 1.2501 0.8578 7.4384 8.9206 11.5800 3.8783 3.2429 9.9119 -6.6783 14.2814 37.1448 -0.4255 -47.3281 65.2252 -0.0000 0.0001 49.9059 -12.5825 18.3639 -8.8209 0.0000 -0.0000 0.0000 -0.0000 -0.0000 0.0000 -0.1369 10.0282 -5.4940 -30.2774 26.2366 -23.0468 -0.0000 -0.0000 -23.8821 -9.4244 -26.9558 1.0066 -0.0000 -0.0000 -0.0000 -0.0000 -0.0000 -0.0000 -20.7820 12.9174 -33.4624 34.3209 0.0000 0.0000 -15.3904 1.7143 -9.2023 5.6542 0.0000 0.0000 -6.5603 -4.7485 -16.5787 54.6130 0.0000 0.0000 12.3601 -3.4103 -1.1429 -19.8128 0.0000 -0.0000
 5.1849 -4.5905 36.6543 0.1383 6.5716 -148.7822 1.9109 -3.9499 0.0944 0.7610 -2.6633 0.1941 4.1379 3.1506 13.1857 2.0917 1.2349 0.8953 7.3872 8.8280 11.4058 3.8736 3.2117 9.5818 -6.3778 14.2466 36.9995 -0.2854 -47.1584 65.1460 -0.0000 0.0001 50.5698 -12.4355 18.6772 -8.8394 0.0000 0.0000 -0.0000 -0.0000 -0.0000 -0.0000 0.0567 9.9840 -5.4903 -30.7474 26.2870 -22.4239 -0.0000 -0.0000 -24.3781 -9.0162 -26.9688 1.1962 -0.0000 -0.0000 -0.0000 0.0000 0.0000 0.0000 -20.2440 12.5539 -33.5193 34.0781 0.0000 0.0000 -15.9424 0.9163 -8.6719 6.4010 0.0000 0.0000 -7.0974 -4.4597 -16.3944 55.7788 0.0000 0.0000 12.8939 -4.2147 -1.1330 -18.5133 0.0000 -0.0000
 5.1988 -4.3331 36.7119 0.2249 6.6164 -149.3807 1.8862 -3.9860 0.1372 0.7387 -2.6393 0.1974 4.1231 3.0979 13.2077 2.0882 1.2179 0.9323 7.3481 8.7215 11.2063 3.8764 3.1657 9.2173 -6.0403 14.1942 36.8283 -0.1222 -47.0223 65.0721 -0.0000 0.0001 51.3097 -12.2729 19.0228 -8.8252 -0.0000 0.0000 -0.0000 0.0000 -0.0000 0.0000 0.2720 9.9479 -5.4771 -31.2933 26.3488 -21.7002 -0.0000 -0.0000 -25.0133 -8.5661 -26.9643 1.3928 -0.0000 0.0000 -0.0000 -0.0000 -0.0000 0.0000 -19.7003 12.2165 -33.5907 33.8428 0.0000 0.0000 -16.4760 0.1307 -8.1136 7.1590 0.0000 0.0000 -7.5981 -4.1498 -16.1641 56.8715 0.0000 0.0000 13.0842 -4.9156 -1.1256 -17.5052 0.0000 -0.0000
 5.2074 -4.0781 36.7661 0.3006 6.6651 -150.0064 1.8424 -4.0104 0.1827 0.7150 -2.6201 0.2005 4.1098 3.0466 13.2142 2.0845 1.1971 0.9808 7.3209 8.6096 10.9785 3.8861 3.1045 8.8132 -5.6793 14.1236 36.6335 0.0799 -46.9319 64.9951 -0.0000 0.0001 52.1309 -12.0971 19.3640 -8.7830 0.0000 0.0000 -0.0000 0.0000 0.0000 0.0000 0.4887 9.9345 -5.4511 -31.8746 26.4104 -20.8974 -0.0000 -0.0000 -25.7702 -8.1119 -26.9271 1.5779 -0.0000 0.0000 0.0000 0.0000 -0.0000 0.0000 -19.1695 11.9070 -33.6690 33.6206 0.0000 0.0000 -16.9887 -0.6358 -7.5333 7.8996 0.0000 0.0000 -8.0789 -3.8191 -15.8833 57.8819 0.0000 0.0000 12.9651 -5.4706 -1.1178 -16.8219 0.0000 -0.0000
